<svg width="960" height="600" version="1.1" xmlns="http://www.w3.org/2000/svg"><g></g><g transform="translate(480,300)scale(1.023454189300537,1.023454189300537)"><text text-anchor="middle" transform="translate(207,-131)rotate(-42.000001308787226)scale(1.0000000000094964,1.0000000000094964)" style="font-size: 37px; font-family: Helvetica; fill: rgb(123, 65, 115);">time</text><text text-anchor="middle" transform="translate(108,-162)rotate(-69.99999934060686)scale(0.9999999995881268,0.9999999995881268)" style="font-size: 52px; font-family: Helvetica; fill: rgb(206, 219, 156);">data</text><text text-anchor="middle" transform="translate(103,-40)rotate(-14.000000325759324)scale(1.0000000024244446,1.0000000024244446)" style="font-size: 10px; font-family: Helvetica; fill: rgb(231, 150, 156);">code</text><text text-anchor="middle" transform="translate(116,-54)rotate(14.000000325759322)scale(1.0000000024244446,1.0000000024244446)" style="font-size: 10px; font-family: Helvetica; fill: rgb(206, 219, 156);">place</text><text text-anchor="middle" transform="translate(76,108)rotate(-69.99999934060686)scale(0.9999999995881268,0.9999999995881268)" style="font-size: 10px; font-family: Helvetica; fill: rgb(140, 162, 82);">part</text><text text-anchor="middle" transform="translate(23,65)rotate(-42.000001308787226)scale(1.0000000000094964,1.0000000000094964)" style="font-size: 10px; font-family: Helvetica; fill: rgb(165, 81, 148);">many</text><text text-anchor="middle" transform="translate(245,176)rotate(42.000001308787226)scale(1.0000000000094964,1.0000000000094964)" style="font-size: 37px; font-family: Helvetica; fill: rgb(107, 110, 207);">using</text><text text-anchor="middle" transform="translate(136,-40)rotate(-14.000000325759316)scale(1.0000000024244446,1.0000000024244446)" style="font-size: 10px; font-family: Helvetica; fill: rgb(156, 158, 222);">test</text><text text-anchor="middle" transform="translate(-242,152)rotate(14.000000325759322)scale(1.0000000024244446,1.0000000024244446)" style="font-size: 10px; font-family: Helvetica; fill: rgb(206, 219, 156);">every</text><text text-anchor="middle" transform="translate(172,21)rotate(-69.99999934060686)scale(0.9999999995881268,0.9999999995881268)" style="font-size: 10px; font-family: Helvetica; fill: rgb(82, 84, 163);"></text><text text-anchor="middle" transform="translate(182,-1)rotate(-42.000001308787226)scale(1.0000000000094964,1.0000000000094964)" style="font-size: 100px; font-family: Helvetica; fill: rgb(107, 110, 207);">statistics</text><text text-anchor="middle" transform="translate(-209,74)rotate(-42.000001308787226)scale(1.0000000000094964,1.0000000000094964)" style="font-size: 80px; font-family: Helvetica; fill: rgb(99, 121, 57);">apply</text><text text-anchor="middle" transform="translate(-100,44)rotate(42.000001308787226)scale(1.0000000000094964,1.0000000000094964)" style="font-size: 80px; font-family: Helvetica; fill: rgb(140, 162, 82);">skills</text><text text-anchor="middle" transform="translate(30,-91)rotate(14.000000325759316)scale(1.0000000024244446,1.0000000024244446)" style="font-size: 72px; font-family: Helvetica; fill: rgb(181, 207, 107);">MATLAB</text><text text-anchor="middle" transform="translate(193,102)rotate(-69.99999934060685)scale(0.9999999995881268,0.9999999995881268)" style="font-size: 64px; font-family: Helvetica; fill: rgb(231, 186, 82);">critical</text><text text-anchor="middle" transform="translate(256,74)rotate(69.99999934060686)scale(0.9999999995881268,0.9999999995881268)" style="font-size: 64px; font-family: Helvetica; fill: rgb(231, 203, 148);">thinking</text><text text-anchor="middle" transform="translate(309,-146)rotate(42.000001308787226)scale(1.0000000000094964,1.0000000000094964)" style="font-size: 64px; font-family: Helvetica; fill: rgb(132, 60, 57);">improve</text><text text-anchor="middle" transform="translate(-36,160)rotate(-42.000001308787226)scale(1.0000000000094964,1.0000000000094964)" style="font-size: 64px; font-family: Helvetica; fill: rgb(173, 73, 74);">ability</text><text text-anchor="middle" transform="translate(-278,-175)rotate(-69.99999934060686)scale(0.9999999995881268,0.9999999995881268)" style="font-size: 52px; font-family: Helvetica; fill: rgb(214, 97, 107);">Analysis</text><text text-anchor="middle" transform="translate(37,198)rotate(14.000000325759324)scale(1.0000000024244446,1.0000000024244446)" style="font-size: 52px; font-family: Helvetica; fill: rgb(231, 150, 156);">coding</text><text text-anchor="middle" transform="translate(156,-198)rotate(-69.99999934060685)scale(0.9999999995881268,0.9999999995881268)" style="font-size: 37px; font-family: Helvetica; fill: rgb(165, 81, 148);">statistical</text><text text-anchor="middle" transform="translate(217,129)rotate(-69.99999934060686)scale(0.9999999995881268,0.9999999995881268)" style="font-size: 37px; font-family: Helvetica; fill: rgb(206, 109, 189);">problem</text><text text-anchor="middle" transform="translate(-200,-55)rotate(-42.000001308787226)scale(1.0000000000094964,1.0000000000094964)" style="font-size: 37px; font-family: Helvetica; fill: rgb(222, 158, 214);">solving</text><text text-anchor="middle" transform="translate(67,3)rotate(-42.000001308787226)scale(1.0000000000094964,1.0000000000094964)" style="font-size: 37px; font-family: Helvetica; fill: rgb(57, 59, 121);">high</text><text text-anchor="middle" transform="translate(50,-36)rotate(-14.000000325759316)scale(1.0000000024244446,1.0000000024244446)" style="font-size: 37px; font-family: Helvetica; fill: rgb(82, 84, 163);">school</text><text text-anchor="middle" transform="translate(-175,111)rotate(-69.99999934060686)scale(0.9999999995881268,0.9999999995881268)" style="font-size: 37px; font-family: Helvetica; fill: rgb(107, 110, 207);">hoping</text><text text-anchor="middle" transform="translate(293,24)rotate(69.99999934060685)scale(0.9999999995881268,0.9999999995881268)" style="font-size: 37px; font-family: Helvetica; fill: rgb(156, 158, 222);">analyze</text><text text-anchor="middle" transform="translate(-39,-67)rotate(42.000001308787226)scale(1.0000000000094964,1.0000000000094964)" style="font-size: 37px; font-family: Helvetica; fill: rgb(99, 121, 57);">work</text><text text-anchor="middle" transform="translate(99,132)rotate(-69.99999934060685)scale(0.9999999995881268,0.9999999995881268)" style="font-size: 37px; font-family: Helvetica; fill: rgb(140, 162, 82);">hope</text><text text-anchor="middle" transform="translate(350,104)rotate(-14.000000325759324)scale(1.0000000024244446,1.0000000024244446)" style="font-size: 37px; font-family: Helvetica; fill: rgb(181, 207, 107);">also</text><text text-anchor="middle" transform="translate(-333,-1)rotate(-69.99999934060686)scale(0.9999999995881268,0.9999999995881268)" style="font-size: 37px; font-family: Helvetica; fill: rgb(206, 219, 156);">problems</text><text text-anchor="middle" transform="translate(-367,-4)rotate(-69.99999934060685)scale(0.9999999995881268,0.9999999995881268)" style="font-size: 37px; font-family: Helvetica; fill: rgb(140, 109, 49);">looking</text><text text-anchor="middle" transform="translate(206,221)rotate(-14.000000325759324)scale(1.0000000024244446,1.0000000024244446)" style="font-size: 37px; font-family: Helvetica; fill: rgb(189, 158, 57);">results</text><text text-anchor="middle" transform="translate(122,91)rotate(42.000001308787226)scale(1.0000000000094964,1.0000000000094964)" style="font-size: 10px; font-family: Helvetica; fill: rgb(231, 186, 82);">Becoming</text><text text-anchor="middle" transform="translate(-125,-128)rotate(42.000001308787226)scale(1.0000000000094964,1.0000000000094964)" style="font-size: 10px; font-family: Helvetica; fill: rgb(231, 203, 148);">familiar</text><text text-anchor="middle" transform="translate(295,-51)rotate(69.99999934060686)scale(0.9999999995881268,0.9999999995881268)" style="font-size: 10px; font-family: Helvetica; fill: rgb(132, 60, 57);">Collaboration</text><text text-anchor="middle" transform="translate(-218,-83)rotate(-42.000001308787226)scale(1.0000000000094964,1.0000000000094964)" style="font-size: 10px; font-family: Helvetica; fill: rgb(173, 73, 74);">proficiency</text><text text-anchor="middle" transform="translate(-135,-60)rotate(69.99999934060686)scale(0.9999999995881268,0.9999999995881268)" style="font-size: 10px; font-family: Helvetica; fill: rgb(214, 97, 107);">utilizing</text><text text-anchor="middle" transform="translate(265,-57)rotate(-42.000001308787226)scale(1.0000000000094964,1.0000000000094964)" style="font-size: 10px; font-family: Helvetica; fill: rgb(231, 150, 156);">methods</text><text text-anchor="middle" transform="translate(170,38)rotate(-69.99999934060686)scale(0.9999999995881268,0.9999999995881268)" style="font-size: 10px; font-family: Helvetica; fill: rgb(123, 65, 115);">realworld</text><text text-anchor="middle" transform="translate(-161,-52)rotate(-14.000000325759324)scale(1.0000000024244446,1.0000000024244446)" style="font-size: 10px; font-family: Helvetica; fill: rgb(165, 81, 148);">scenarios</text><text text-anchor="middle" transform="translate(144,55)rotate(-69.99999934060685)scale(0.9999999995881268,0.9999999995881268)" style="font-size: 10px; font-family: Helvetica; fill: rgb(206, 109, 189);">properly</text><text text-anchor="middle" transform="translate(-119,205)rotate(42.000001308787226)scale(1.0000000000094964,1.0000000000094964)" style="font-size: 10px; font-family: Helvetica; fill: rgb(222, 158, 214);">interpretingmodifying</text><text text-anchor="middle" transform="translate(-158,-34)rotate(-42.00000130878722)scale(1.0000000000094964,1.0000000000094964)" style="font-size: 10px; font-family: Helvetica; fill: rgb(57, 59, 121);">Analyzing</text><text text-anchor="middle" transform="translate(-218,128)rotate(-42.000001308787226)scale(1.0000000000094964,1.0000000000094964)" style="font-size: 10px; font-family: Helvetica; fill: rgb(82, 84, 163);">presented</text><text text-anchor="middle" transform="translate(-28,-105)rotate(42.00000130878722)scale(1.0000000000094964,1.0000000000094964)" style="font-size: 10px; font-family: Helvetica; fill: rgb(107, 110, 207);">form</text><text text-anchor="middle" transform="translate(24,-11)rotate(-69.99999934060686)scale(0.9999999995881268,0.9999999995881268)" style="font-size: 10px; font-family: Helvetica; fill: rgb(156, 158, 222);">charts</text><text text-anchor="middle" transform="translate(-91,84)rotate(69.99999934060686)scale(0.9999999995881268,0.9999999995881268)" style="font-size: 10px; font-family: Helvetica; fill: rgb(99, 121, 57);">management</text><text text-anchor="middle" transform="translate(-236,-148)rotate(42.000001308787226)scale(1.0000000000094964,1.0000000000094964)" style="font-size: 10px; font-family: Helvetica; fill: rgb(140, 162, 82);">improving</text><text text-anchor="middle" transform="translate(-158,-159)rotate(42.000001308787226)scale(1.0000000000094964,1.0000000000094964)" style="font-size: 10px; font-family: Helvetica; fill: rgb(181, 207, 107);">taking</text><text text-anchor="middle" transform="translate(-122,-157)rotate(69.99999934060686)scale(0.9999999995881268,0.9999999995881268)" style="font-size: 10px; font-family: Helvetica; fill: rgb(206, 219, 156);">application</text><text text-anchor="middle" transform="translate(-68,92)rotate(14.000000325759316)scale(1.0000000024244446,1.0000000024244446)" style="font-size: 10px; font-family: Helvetica; fill: rgb(140, 109, 49);">math</text><text text-anchor="middle" transform="translate(5,150)rotate(14.000000325759324)scale(1.0000000024244446,1.0000000024244446)" style="font-size: 10px; font-family: Helvetica; fill: rgb(189, 158, 57);">Mostly</text><text text-anchor="middle" transform="translate(-228,-11)rotate(-69.99999934060686)scale(0.9999999995881268,0.9999999995881268)" style="font-size: 10px; font-family: Helvetica; fill: rgb(231, 186, 82);">relate</text><text text-anchor="middle" transform="translate(-116,85)rotate(42.000001308787226)scale(1.0000000000094964,1.0000000000094964)" style="font-size: 10px; font-family: Helvetica; fill: rgb(231, 203, 148);">Civil</text><text text-anchor="middle" transform="translate(-170,31)rotate(14.000000325759324)scale(1.0000000024244446,1.0000000024244446)" style="font-size: 10px; font-family: Helvetica; fill: rgb(132, 60, 57);">last</text><text text-anchor="middle" transform="translate(149,-126)rotate(-14.000000325759316)scale(1.0000000024244446,1.0000000024244446)" style="font-size: 10px; font-family: Helvetica; fill: rgb(173, 73, 74);">wrote</text><text text-anchor="middle" transform="translate(64,-111)rotate(-69.99999934060686)scale(0.9999999995881268,0.9999999995881268)" style="font-size: 10px; font-family: Helvetica; fill: rgb(214, 97, 107);">junior</text><text text-anchor="middle" transform="translate(113,119)rotate(69.99999934060686)scale(0.9999999995881268,0.9999999995881268)" style="font-size: 10px; font-family: Helvetica; fill: rgb(231, 150, 156);">year</text><text text-anchor="middle" transform="translate(-101,132)rotate(14.000000325759324)scale(1.0000000024244446,1.0000000024244446)" style="font-size: 10px; font-family: Helvetica; fill: rgb(123, 65, 115);">probabilities</text><text text-anchor="middle" transform="translate(-216,-19)rotate(42.00000130878722)scale(1.0000000000094964,1.0000000000094964)" style="font-size: 10px; font-family: Helvetica; fill: rgb(165, 81, 148);">took</text><text text-anchor="middle" transform="translate(255,-100)rotate(-69.99999934060686)scale(0.9999999995881268,0.9999999995881268)" style="font-size: 10px; font-family: Helvetica; fill: rgb(206, 109, 189);">class</text><text text-anchor="middle" transform="translate(-29,-153)rotate(-69.99999934060686)scale(0.9999999995881268,0.9999999995881268)" style="font-size: 10px; font-family: Helvetica; fill: rgb(222, 158, 214);">struggled</text><text text-anchor="middle" transform="translate(-51,-171)rotate(-42.000001308787226)scale(1.0000000000094964,1.0000000000094964)" style="font-size: 10px; font-family: Helvetica; fill: rgb(57, 59, 121);">understand</text><text text-anchor="middle" transform="translate(-111,112)rotate(-42.000001308787226)scale(1.0000000000094964,1.0000000000094964)" style="font-size: 10px; font-family: Helvetica; fill: rgb(82, 84, 163);">click</text><text text-anchor="middle" transform="translate(-191,-18)rotate(-69.99999934060686)scale(0.9999999995881268,0.9999999995881268)" style="font-size: 10px; font-family: Helvetica; fill: rgb(107, 110, 207);">semester</text><text text-anchor="middle" transform="translate(-95,-175)rotate(-69.99999934060686)scale(0.9999999995881268,0.9999999995881268)" style="font-size: 10px; font-family: Helvetica; fill: rgb(156, 158, 222);">analytical</text><text text-anchor="middle" transform="translate(-243,22)rotate(-14.000000325759316)scale(1.0000000024244446,1.0000000024244446)" style="font-size: 10px; font-family: Helvetica; fill: rgb(99, 121, 57);">thinkingdata</text><text text-anchor="middle" transform="translate(-94,-99)rotate(42.000001308787226)scale(1.0000000000094964,1.0000000000094964)" style="font-size: 10px; font-family: Helvetica; fill: rgb(140, 162, 82);">reduction</text><text text-anchor="middle" transform="translate(31,-93)rotate(-42.000001308787226)scale(1.0000000000094964,1.0000000000094964)" style="font-size: 10px; font-family: Helvetica; fill: rgb(181, 207, 107);">well</text><text text-anchor="middle" transform="translate(136,135)rotate(-69.99999934060686)scale(0.9999999995881268,0.9999999995881268)" style="font-size: 10px; font-family: Helvetica; fill: rgb(206, 219, 156);">visual</text><text text-anchor="middle" transform="translate(209,2)rotate(-14.000000325759316)scale(1.0000000024244446,1.0000000024244446)" style="font-size: 10px; font-family: Helvetica; fill: rgb(140, 109, 49);">appeal</text><text text-anchor="middle" transform="translate(44,132)rotate(14.000000325759322)scale(1.0000000024244446,1.0000000024244446)" style="font-size: 10px; font-family: Helvetica; fill: rgb(189, 158, 57);">graphics</text><text text-anchor="middle" transform="translate(-227,168)rotate(14.000000325759324)scale(1.0000000024244446,1.0000000024244446)" style="font-size: 10px; font-family: Helvetica; fill: rgb(231, 186, 82);">Understanding</text><text text-anchor="middle" transform="translate(-111,161)rotate(-69.99999934060685)scale(0.9999999995881268,0.9999999995881268)" style="font-size: 10px; font-family: Helvetica; fill: rgb(231, 203, 148);">evaluating</text><text text-anchor="middle" transform="translate(230,43)rotate(69.99999934060686)scale(0.9999999995881268,0.9999999995881268)" style="font-size: 10px; font-family: Helvetica; fill: rgb(132, 60, 57);">creating</text><text text-anchor="middle" transform="translate(-165,-63)rotate(-14.000000325759324)scale(1.0000000024244446,1.0000000024244446)" style="font-size: 10px; font-family: Helvetica; fill: rgb(173, 73, 74);">effective</text><text text-anchor="middle" transform="translate(-79,-12)rotate(69.99999934060686)scale(0.9999999995881268,0.9999999995881268)" style="font-size: 10px; font-family: Helvetica; fill: rgb(214, 97, 107);">figures</text><text text-anchor="middle" transform="translate(103,-28)rotate(-14.000000325759322)scale(1.0000000024244446,1.0000000024244446)" style="font-size: 10px; font-family: Helvetica; fill: rgb(231, 150, 156);">learn</text><text text-anchor="middle" transform="translate(-128,149)rotate(69.99999934060686)scale(0.9999999995881268,0.9999999995881268)" style="font-size: 10px; font-family: Helvetica; fill: rgb(123, 65, 115);">real</text><text text-anchor="middle" transform="translate(213,-17)rotate(-69.99999934060686)scale(0.9999999995881268,0.9999999995881268)" style="font-size: 10px; font-family: Helvetica; fill: rgb(165, 81, 148);">world</text><text text-anchor="middle" transform="translate(237,122)rotate(42.00000130878722)scale(1.0000000000094964,1.0000000000094964)" style="font-size: 10px; font-family: Helvetica; fill: rgb(206, 109, 189);">events</text><text text-anchor="middle" transform="translate(-184,-4)rotate(42.000001308787226)scale(1.0000000000094964,1.0000000000094964)" style="font-size: 10px; font-family: Helvetica; fill: rgb(222, 158, 214);">take</text><text text-anchor="middle" transform="translate(170,-154)rotate(42.00000130878722)scale(1.0000000000094964,1.0000000000094964)" style="font-size: 10px; font-family: Helvetica; fill: rgb(57, 59, 121);">comfort</text><text text-anchor="middle" transform="translate(42,-68)rotate(-14.000000325759324)scale(1.0000000024244446,1.0000000024244446)" style="font-size: 10px; font-family: Helvetica; fill: rgb(82, 84, 163);">programs</text><text text-anchor="middle" transform="translate(15,-72)rotate(-69.99999934060686)scale(0.9999999995881268,0.9999999995881268)" style="font-size: 10px; font-family: Helvetica; fill: rgb(107, 110, 207);">group</text><text text-anchor="middle" transform="translate(326,-15)rotate(-42.000001308787226)scale(1.0000000000094964,1.0000000000094964)" style="font-size: 10px; font-family: Helvetica; fill: rgb(156, 158, 222);">principals</text><text text-anchor="middle" transform="translate(225,-117)rotate(-69.99999934060685)scale(0.9999999995881268,0.9999999995881268)" style="font-size: 10px; font-family: Helvetica; fill: rgb(99, 121, 57);">research</text><text text-anchor="middle" transform="translate(-261,48)rotate(14.000000325759324)scale(1.0000000024244446,1.0000000024244446)" style="font-size: 10px; font-family: Helvetica; fill: rgb(140, 162, 82);">explain</text><text text-anchor="middle" transform="translate(45,148)rotate(-14.000000325759324)scale(1.0000000024244446,1.0000000024244446)" style="font-size: 10px; font-family: Helvetica; fill: rgb(181, 207, 107);">others</text><text text-anchor="middle" transform="translate(-12,-85)rotate(14.000000325759324)scale(1.0000000024244446,1.0000000024244446)" style="font-size: 10px; font-family: Helvetica; fill: rgb(206, 219, 156);">clearly</text><text text-anchor="middle" transform="translate(-250,9)rotate(14.000000325759324)scale(1.0000000024244446,1.0000000024244446)" style="font-size: 10px; font-family: Helvetica; fill: rgb(140, 109, 49);">plain</text><text text-anchor="middle" transform="translate(-285,149)rotate(14.000000325759324)scale(1.0000000024244446,1.0000000024244446)" style="font-size: 10px; font-family: Helvetica; fill: rgb(189, 158, 57);">language</text><text text-anchor="middle" transform="translate(-349,-88)rotate(69.99999934060686)scale(0.9999999995881268,0.9999999995881268)" style="font-size: 10px; font-family: Helvetica; fill: rgb(231, 186, 82);">Familiarity</text><text text-anchor="middle" transform="translate(314,-92)rotate(-69.99999934060686)scale(0.9999999995881268,0.9999999995881268)" style="font-size: 10px; font-family: Helvetica; fill: rgb(231, 203, 148);">Statistic</text><text text-anchor="middle" transform="translate(13,-172)rotate(-69.99999934060686)scale(0.9999999995881268,0.9999999995881268)" style="font-size: 10px; font-family: Helvetica; fill: rgb(132, 60, 57);">develop</text><text text-anchor="middle" transform="translate(-139,-99)rotate(-42.000001308787226)scale(1.0000000000094964,1.0000000000094964)" style="font-size: 10px; font-family: Helvetica; fill: rgb(173, 73, 74);">better</text><text text-anchor="middle" transform="translate(-249,129)rotate(-42.00000130878722)scale(1.0000000000094964,1.0000000000094964)" style="font-size: 10px; font-family: Helvetica; fill: rgb(214, 97, 107);">career</text><text text-anchor="middle" transform="translate(333,120)rotate(-14.000000325759324)scale(1.0000000024244446,1.0000000024244446)" style="font-size: 10px; font-family: Helvetica; fill: rgb(231, 150, 156);">exactly</text><text text-anchor="middle" transform="translate(155,70)rotate(14.000000325759322)scale(1.0000000024244446,1.0000000024244446)" style="font-size: 10px; font-family: Helvetica; fill: rgb(123, 65, 115);">sure</text><text text-anchor="middle" transform="translate(-60,104)rotate(-69.99999934060686)scale(0.9999999995881268,0.9999999995881268)" style="font-size: 10px; font-family: Helvetica; fill: rgb(165, 81, 148);">yet</text><text text-anchor="middle" transform="translate(-21,196)rotate(-14.000000325759322)scale(1.0000000024244446,1.0000000024244446)" style="font-size: 10px; font-family: Helvetica; fill: rgb(206, 109, 189);">able</text><text text-anchor="middle" transform="translate(36,-21)rotate(42.000001308787226)scale(1.0000000000094964,1.0000000000094964)" style="font-size: 10px; font-family: Helvetica; fill: rgb(222, 158, 214);">sets</text><text text-anchor="middle" transform="translate(39,-170)rotate(69.99999934060686)scale(0.9999999995881268,0.9999999995881268)" style="font-size: 10px; font-family: Helvetica; fill: rgb(57, 59, 121);">determine</text><text text-anchor="middle" transform="translate(-228,198)rotate(-42.000001308787226)scale(1.0000000000094964,1.0000000000094964)" style="font-size: 10px; font-family: Helvetica; fill: rgb(82, 84, 163);">significance</text><text text-anchor="middle" transform="translate(247,92)rotate(-69.99999934060686)scale(0.9999999995881268,0.9999999995881268)" style="font-size: 10px; font-family: Helvetica; fill: rgb(107, 110, 207);">graphs</text><text text-anchor="middle" transform="translate(-214,98)rotate(-69.99999934060686)scale(0.9999999995881268,0.9999999995881268)" style="font-size: 10px; font-family: Helvetica; fill: rgb(156, 158, 222);">survey</text><text text-anchor="middle" transform="translate(60,28)rotate(-42.00000130878722)scale(1.0000000000094964,1.0000000000094964)" style="font-size: 10px; font-family: Helvetica; fill: rgb(99, 121, 57);">Excel</text><text text-anchor="middle" transform="translate(-145,142)rotate(-69.99999934060686)scale(0.9999999995881268,0.9999999995881268)" style="font-size: 52px; font-family: Helvetica; fill: rgb(123, 65, 115);">Concepts</text><text text-anchor="middle" transform="translate(-276,19)rotate(-69.99999934060686)scale(0.9999999995881268,0.9999999995881268)" style="font-size: 72px; font-family: Helvetica; fill: rgb(189, 158, 57);">probability</text><text text-anchor="middle" transform="translate(-126,-70)rotate(42)" style="font-size: 72px; font-family: Helvetica; fill: rgb(206, 219, 156);">engineering</text></g></svg>